# xmcd CD database file
#
# Track frame offsets:
#	150
#	15339
#	37091
#	52415
#	63064
#	76974
#	96878
#	113974
#	127772
#	149788
#	170107
#
# Disc length: 2465 seconds
#
# Revision: 0
# Processed by: cddbd v1.5.2PL0 Copyright (c) Steve Scherf et al.
# Submitted via: CDex 1.79
#
DISCID=99099f0b
DTITLE=Rob Armus - One man banned
DYEAR=2012
DGENRE=Jazz
TTITLE0=Gone to the dogs
TTITLE1=2012 blues
TTITLE2=Breaking away
TTITLE3=A hard row to hoe
TTITLE4=Float away intoiin your dreams
TTITLE5=Old man in the mirror
TTITLE6=China palais
TTITLE7=Skid row
TTITLE8=One man banned
TTITLE9=Azur dreams
TTITLE10=Going to the promised land
EXTD=YEAR: 2012
EXTT0=
EXTT1=
EXTT2=
EXTT3=
EXTT4=
EXTT5=
EXTT6=
EXTT7=
EXTT8=
EXTT9=
EXTT10=
PLAYORDER=
